<svg xmlns="http://www.w3.org/2000/svg"
shape-rendering="geometricPrecision"
width="4000" height="4000" viewBox="0 0 585 585">
  <metadata>null</metadata>

<path d="
M 26.288 427.152
C 27.604 424.089 29.585 421.297 30.953 418.23
C 32.868 418.721 34.742 420.655 36.608 421.507
C 41.022 423.522 45.987 424.731 50.861 424.318
C 54.84 423.981 59.028 419.801 55.122 416.245
C 53.069 414.376 49.712 413.947 47.109 413.303
C 41.016 411.794 34.212 410.393 30.45 404.888
C 26.847 399.614 27.944 391.51 32.525 387.133
C 34.588 385.162 37.25 383.988 39.975 383.245
C 46.47 381.475 53.511 382.102 59.856 384.185
C 62.375 385.012 64.73 386.453 67.244 387.195
C 66.206 389.16 65.265 391.248 64.395 393.3
C 64.001 394.228 63.713 395.76 62.96 396.441
C 57.243 394.05 51.511 391.517 45.094 392.146
C 41.722 392.476 37.789 395.816 41.049 399.119
C 42.94 401.035 46.443 401.786 48.965 402.442
C 55.543 404.154 65.183 406.279 67.634 413.671
C 70.737 423.026 64.088 430.745 55.364 433.08
C 45.349 435.76 34.803 432.455 26.288 427.152 Z"
opacity="1" fill="rgb(13,106,195)" fill-rule="evenodd" />
<path d="
M 75.966 403.089
C 77.368 397.768 79.439 392.847 83.548 388.989
C 91.594 381.434 105.313 379.914 114.996 384.986
C 118.369 386.753 120.787 389.553 123.122 392.476
C 120.208 394.693 117.241 396.844 114.495 399.264
C 111.864 396.846 110.184 394.509 106.431 393.577
C 103.863 392.939 101.069 392.853 98.485 393.458
C 83.065 397.066 85.316 422.048 100.988 423.253
C 103.308 423.431 105.659 423.112 107.848 422.331
C 110.609 421.344 112.765 419.4 114.594 417.167
C 115.358 417.16 116.349 418.327 116.988 418.786
C 119.162 420.347 121.236 422.023 123.473 423.495
C 113.309 436.763 91.54 438.243 80.979 424.365
C 78.528 421.145 76.984 417.63 76.09 413.695
C 75.329 410.347 75.315 406.456 75.966 403.089 Z"
opacity="1" fill="rgb(12,107,197)" fill-rule="evenodd" />
<path d="
M 132.333 364.774
C 136.453 364.878 140.583 364.639 144.703 364.744
C 145.399 366.959 144.835 370.167 144.841 372.501
C 144.856 378.336 144.586 384.265 144.924 390.086
C 145.91 389.472 146.484 388.148 147.329 387.337
C 149.514 385.24 152.24 383.791 155.148 382.993
C 158.024 382.204 161.052 382.042 164.017 382.305
C 171.47 382.966 176.895 388.666 178.705 395.655
C 179.641 399.267 179.49 403.145 179.49 406.848
C 179.49 412.081 179.5 417.28 179.492 422.51
C 179.488 425.009 179.485 427.508 179.452 430.008
C 179.44 430.94 179.214 432.329 179.596 433.182
C 175.417 432.849 171.158 433.204 166.965 433.043
C 166.824 424.757 167.234 416.438 167.026 408.159
C 166.93 404.357 167.219 400.334 164.716 397.18
C 159.861 391.064 149.888 393.636 146.533 399.876
C 144.895 402.921 144.887 406.447 144.829 409.813
C 144.748 414.541 144.781 419.274 144.779 424.003
C 144.778 426.689 144.037 430.615 144.814 433.169
C 140.778 433.192 136.364 433.513 132.365 433.095
C 132.554 418.906 132.279 404.693 132.282 390.5
C 132.284 381.974 132.848 373.282 132.333 364.774 Z"
opacity="1" fill="rgb(15,108,197)" fill-rule="evenodd" />
<path d="
M 189.982 406.612
C 190.257 401.569 191.975 396.596 194.945 392.496
C 204.519 379.283 225.819 378.981 236.607 390.698
C 238.819 393.101 240.461 396.066 241.535 399.139
C 242.726 402.547 243.312 406.373 243.096 409.985
C 241.805 431.664 213.599 441.717 197.894 427.563
C 195.129 425.072 193.088 421.671 191.692 418.252
C 190.187 414.563 189.765 410.571 189.982 406.612 Z
M 202.453 405.1
C 201.536 410.408 202.993 416.548 207.218 420.115
C 215.753 427.32 228.423 421.959 230.348 411.395
C 231.375 405.761 229.37 398.598 224.4 395.352
C 215.733 389.691 204.191 395.036 202.453 405.1 Z"
opacity="1" fill="rgb(15,108,197)" fill-rule="evenodd" />
<path d="
M 204.004 173.607
C 203.712 175.621 204.416 178.111 204.399 180.232
C 204.344 186.988 204.422 193.74 204.447 200.498
C 204.515 218.929 204.146 237.356 204.315 255.789
C 204.376 262.395 203.073 269.041 203.529 275.644
C 203.76 278.987 204.244 282.535 206.423 285.249
C 207.757 286.911 210.048 287.421 212.023 287.891
C 215.822 288.796 219.602 289.698 223.434 290.491
C 236.408 293.178 248.714 297.64 260.931 302.598
C 262.483 303.228 263.791 304.319 265.232 305.148
C 266.892 306.102 268.675 306.783 270.333 307.773
C 271.22 308.303 272.685 308.622 273.294 309.506
C 273.575 309.913 273.411 310.412 273.128 310.77
C 272.588 311.452 272.214 310.667 271.849 311.006
C 271.63 311.209 272.142 311.499 272.053 311.782
C 271.881 312.333 271.052 313.168 270.471 313.064
C 265.396 311.498 260.534 309.181 255.453 307.584
C 245.592 304.486 235.621 301.654 225.51 299.47
C 219.038 298.072 212.477 296.831 205.919 295.904
C 202.541 295.426 198.622 295.568 195.397 294.397
C 190.305 292.549 190.439 287.503 190.473 283
C 191.684 269.976 191.192 256.594 191.115 243.489
C 191.037 230.167 191.369 216.847 190.895 203.528
C 190.727 200.175 190.729 196.819 190.517 193.499
C 190.452 188.953 189.486 183.109 190.922 178.726
C 191.528 176.875 193.063 174.629 194.942 173.891
C 196.221 173.388 197.697 173.353 199.052 173.387
C 200.688 173.428 202.386 173.346 204.004 173.607 Z"
opacity="1" fill="rgb(12,111,204)" fill-rule="evenodd" />
<path d="
M 190.517 193.499
C 190.729 196.819 190.727 200.175 190.895 203.528
C 191.369 216.847 191.037 230.167 191.115 243.489
C 191.192 256.594 191.684 269.976 190.473 283
C 189.842 268.721 190.316 254.307 190.3 240.013
C 190.283 224.535 189.792 208.965 190.517 193.499 Z"
opacity="1" fill="rgb(24,102,186)" fill-rule="evenodd" />
<path d="
M 204.004 173.607
C 205.265 173.545 206.519 173.501 207.78 173.476
C 208.073 182.13 207.779 190.84 207.772 199.5
C 207.757 216.501 207.754 233.502 207.756 250.502
C 207.757 257 207.762 263.504 207.658 270.001
C 207.614 272.697 207.028 275.988 209.026 278.165
C 210.631 279.914 213.914 280.132 216.117 280.56
C 221.5 281.604 226.845 282.835 232.163 284.169
C 249.605 288.542 267.758 296.593 281.389 308.479
C 284.657 311.329 287.793 314.284 290.47 317.713
C 291.509 319.044 292.882 320.449 293.272 322.134
C 293.483 322.791 293.755 322.8 294.415 322.796
C 292.565 323.992 289.939 321.937 288.241 321.098
C 284.001 319.005 279.662 317.149 275.375 315.162
C 273.772 314.419 272 313.957 270.471 313.064
C 271.052 313.168 271.881 312.333 272.053 311.782
C 272.142 311.499 271.63 311.209 271.849 311.006
C 272.214 310.667 272.588 311.452 273.128 310.77
C 273.411 310.412 273.575 309.913 273.294 309.506
C 272.685 308.622 271.22 308.303 270.333 307.773
C 268.675 306.783 266.892 306.102 265.232 305.148
C 263.791 304.319 262.483 303.228 260.931 302.598
C 248.714 297.64 236.408 293.178 223.434 290.491
C 219.602 289.698 215.822 288.796 212.023 287.891
C 210.048 287.421 207.757 286.911 206.423 285.249
C 204.244 282.535 203.76 278.987 203.529 275.644
C 203.073 269.041 204.376 262.395 204.315 255.789
C 204.146 237.356 204.515 218.929 204.447 200.498
C 204.422 193.74 204.344 186.988 204.399 180.232
C 204.416 178.111 203.712 175.621 204.004 173.607 Z"
opacity="1" fill="rgb(10,98,181)" fill-rule="evenodd" />
<path d="
M 332.282 165.505
C 333.177 165.7 333.948 166.86 333.568 167.686
C 333.026 168.866 331.866 169.798 331.141 170.877
C 329.319 173.585 327.566 176.417 326.329 179.447
C 324.61 183.658 323.741 188.13 323.013 192.602
C 322.862 193.526 323.074 196.65 322.005 196.905
C 316.471 196.613 310.875 199.653 309.652 205.399
C 309.073 206.162 308.891 207.129 308.414 207.953
C 304.492 214.624 298.236 220.138 294.806 227.124
C 293.891 228.988 293.813 231.422 293.349 233.436
C 293.194 234.112 293.478 235.131 292.762 235.438
C 292.026 235.626 292.243 236.152 291.844 236.654
C 289.921 234.898 288.618 232.327 287.083 230.24
C 283.847 225.841 280.615 221.438 277.358 217.054
C 277.446 216.134 278.029 215.366 278.159 214.445
C 278.548 211.697 277.546 208.839 276.023 206.587
C 272.5 201.377 263.048 200.317 259.261 205.803
C 258.463 206.602 257.411 207.004 256.665 207.843
C 249.325 216.107 241.531 223.939 233.834 231.894
C 229.67 236.198 225.618 241.368 220.912 245.057
C 220.306 246.15 220.129 247.375 219.666 248.521
C 219.709 247.199 219.385 245.903 219.408 244.573
C 219.672 229.886 219.615 215.193 219.615 200.498
C 219.615 185.765 220.226 170.869 219.618 156.154
C 220.043 155.168 223.17 156.234 224.204 156.461
C 229.16 157.55 234.097 158.6 238.962 160.06
C 258.714 165.986 278.786 175.205 293.146 190.418
C 294.038 190.196 295.11 188.313 295.839 187.658
C 298.404 185.356 301.055 183.161 303.869 181.169
C 310.046 176.794 316.453 172.974 323.247 169.625
C 326.142 168.198 329.191 166.451 332.282 165.505 Z"
opacity="1" fill="rgb(47,169,243)" fill-rule="evenodd" />
<path d="
M 219.666 248.521
C 220.129 247.375 220.306 246.15 220.912 245.057
C 225.618 241.368 229.67 236.198 233.834 231.894
C 241.531 223.939 249.325 216.107 256.665 207.843
C 257.411 207.004 258.463 206.602 259.261 205.803
C 258.238 207.39 256.8 209.107 256.517 211.025
C 256.305 212.464 256.7 213.85 256.562 215.266
C 255.866 216.475 254.505 217.435 253.522 218.415
C 251.654 220.279 249.782 222.139 247.909 223.998
C 241.713 230.148 235.568 236.348 229.352 242.479
C 227.042 244.757 224.713 247.012 222.385 249.271
C 221.554 250.077 220.596 251.589 219.491 251.994
C 219.745 250.902 219.611 249.643 219.666 248.521 Z"
opacity="1" fill="rgb(32,150,224)" fill-rule="evenodd" />
<path d="
M 293.324 260.307
C 292.801 262.865 293.018 265.905 293.416 268.468
C 292.371 267.956 290.919 267.978 289.777 267.642
C 286.574 266.699 283.576 265.075 281.816 262.124
C 279.772 258.699 280.447 255.329 279.582 251.685
C 279.162 249.913 277.602 248.363 276.577 246.902
C 274.129 243.413 271.521 240.036 268.943 236.643
C 267.968 235.36 266.156 232.68 264.575 232.215
C 252.836 243.435 240.636 254.205 229.416 265.954
C 229.004 266.385 227.349 267.828 227.617 268.484
C 227.845 269.042 229.905 270.223 229.026 270.942
C 227.021 270.534 225.03 270.031 223.045 269.536
C 222.029 269.282 220.864 269.237 220.004 268.616
C 219.763 267.677 219.674 266.852 219.708 265.878
C 220.791 264.323 222.505 263.134 223.867 261.822
C 225.967 259.799 227.96 257.662 230.035 255.613
C 237.261 248.476 244.57 241.427 251.83 234.326
C 255.376 230.857 259.445 227.552 262.506 223.64
C 263.654 223.509 264.893 224.078 266.07 224.117
C 267.392 224.16 268.687 223.591 269.994 223.752
C 273.434 228.459 276.806 233.219 280.274 237.909
C 281.677 239.806 283.36 241.674 284.565 243.694
C 284.834 245.205 283.397 247.42 283.366 249.097
C 283.292 253.099 285.45 256.812 288.968 258.698
C 290.347 259.436 292.019 259.522 293.324 260.307 Z"
opacity="1" fill="rgb(11,94,179)" fill-rule="evenodd" />
<path d="
M 293.416 268.468
C 293.399 268.641 293.381 268.815 293.363 268.988
C 292.998 274.108 293.348 279.363 293.3 284.5
C 293.221 292.887 292.968 301.226 293.92 309.499
C 293.281 310.514 292.737 309.541 292.144 308.884
C 290.668 307.248 289.24 305.575 287.721 303.979
C 283.779 299.838 279.38 296.269 274.878 292.767
C 261.802 282.594 245.267 274.433 229.026 270.942
C 229.905 270.223 227.845 269.042 227.617 268.484
C 227.349 267.828 229.004 266.385 229.416 265.954
C 240.636 254.205 252.836 243.435 264.575 232.215
C 266.156 232.68 267.968 235.36 268.943 236.643
C 271.521 240.036 274.129 243.413 276.577 246.902
C 277.602 248.363 279.162 249.913 279.582 251.685
C 280.447 255.329 279.772 258.699 281.816 262.124
C 283.576 265.075 286.574 266.699 289.777 267.642
C 290.919 267.978 292.371 267.956 293.416 268.468 Z"
opacity="1" fill="rgb(12,109,199)" fill-rule="evenodd" />
<path d="
M 251.426 403.586
C 252.746 395.868 257.841 388.633 264.91 385.138
C 276.772 379.273 292.906 382.215 300.295 393.666
C 301.979 396.276 303.174 399.136 303.81 402.179
C 304.512 405.534 304.665 409.039 304.08 412.427
C 303.097 418.125 300.11 423.872 295.614 427.578
C 283.985 437.165 264.023 436.367 255.339 423.069
C 253.721 420.591 252.458 417.884 251.772 414.994
C 250.895 411.304 250.787 407.319 251.426 403.586 Z
M 263.483 407.127
C 263.302 409.972 263.806 412.877 264.928 415.502
C 268.608 424.117 280.645 425.533 287.269 419.561
C 290.129 416.983 291.453 412.847 291.72 409.116
C 291.894 406.702 291.588 404.233 290.748 401.96
C 287.973 394.451 278.928 390.659 271.638 394.262
C 266.824 396.641 263.818 401.863 263.483 407.127 Z"
opacity="1" fill="rgb(14,108,197)" fill-rule="evenodd" />
<path d="
M 291.844 236.654
C 292.243 236.152 292.026 235.626 292.762 235.438
C 293.478 235.131 293.194 234.112 293.349 233.436
C 293.813 231.422 293.891 228.988 294.806 227.124
C 298.236 220.138 304.492 214.624 308.414 207.953
C 308.891 207.129 309.073 206.162 309.652 205.399
C 309.299 207.068 309.012 209.174 309.522 210.847
C 309.722 211.504 310.798 212.624 310.617 213.262
C 308.224 217.782 304.891 221.989 302.141 226.312
C 299.661 230.211 297.301 234.725 294.222 238.161
C 293.322 238.57 292.318 237.284 291.844 236.654 Z"
opacity="1" fill="rgb(38,156,229)" fill-rule="evenodd" />
<path d="
M 293.324 260.307
C 295.361 259.84 297.352 259.86 299.243 258.827
C 304.636 255.879 306.732 248.848 303.391 243.646
C 303.893 241.147 306.673 238.206 308.025 236.006
C 310.482 232.011 312.976 228.075 315.513 224.129
C 316.832 222.078 317.945 219.838 319.592 218.028
C 322.858 217.359 325.173 223.17 326.55 225.315
C 328.544 228.419 330.361 231.635 332.358 234.736
C 333.128 235.932 334.675 237.606 334.88 239.035
C 335.087 240.484 333.679 242.054 333.457 243.507
C 332.952 246.806 334.755 250.418 337.16 252.58
C 341.609 256.58 349.185 256.512 353.087 251.692
C 354.96 249.378 355.692 246.252 355.503 243.313
C 355.412 241.905 354.668 240.727 353.983 239.535
C 354.389 238.288 355.456 237.324 356.215 236.272
C 357.385 234.652 358.368 232.87 359.403 231.162
C 361.198 230.949 364.014 232.257 365.92 232.532
C 366.312 234.369 366.113 236.425 366.126 238.296
C 366.147 241.358 366.272 244.452 366.151 247.509
C 366.055 247.262 366.162 246.787 366.051 246.596
C 365.21 245.143 361.696 245.083 360.268 244.659
C 359.628 244.468 358.814 243.889 358.168 244.134
C 358.336 248.321 358.465 253.063 356.678 256.957
C 353.23 264.467 344.48 266.902 337.402 262.947
C 334.262 261.192 331.595 258.11 330.983 254.508
C 330.671 252.668 331.094 250.497 330.495 248.748
C 329.389 245.522 325.936 242.462 324.082 239.566
C 322.827 237.607 321.529 235.677 320.243 233.739
C 319.794 233.064 319.325 231.821 318.523 232.075
C 316.418 235.503 314.329 238.861 312.016 242.158
C 310.623 244.144 308.833 245.952 307.748 248.131
C 306.616 250.405 306.605 253.053 306.164 255.508
C 305.373 259.92 303.639 264.064 299.644 266.438
C 297.808 267.529 295.808 267.597 293.829 268.243
C 293.691 268.318 293.554 268.393 293.416 268.468
C 293.018 265.905 292.801 262.865 293.324 260.307 Z"
opacity="1" fill="rgb(29,147,229)" fill-rule="evenodd" />
<path d="
M 293.363 268.988
C 293.624 268.582 293.467 268.829 293.829 268.243
C 295.808 267.597 297.808 267.529 299.644 266.438
C 303.639 264.064 305.373 259.92 306.164 255.508
C 306.605 253.053 306.616 250.405 307.748 248.131
C 308.833 245.952 310.623 244.144 312.016 242.158
C 314.329 238.861 316.418 235.503 318.523 232.075
C 319.325 231.821 319.794 233.064 320.243 233.739
C 321.529 235.677 322.827 237.607 324.082 239.566
C 325.936 242.462 329.389 245.522 330.495 248.748
C 331.094 250.497 330.671 252.668 330.983 254.508
C 331.595 258.11 334.262 261.192 337.402 262.947
C 344.48 266.902 353.23 264.467 356.678 256.957
C 358.465 253.063 358.336 248.321 358.168 244.134
C 358.814 243.889 359.628 244.468 360.268 244.659
C 361.696 245.083 365.21 245.143 366.051 246.596
C 366.162 246.787 366.055 247.262 366.151 247.509
C 366.212 252.171 366.142 256.84 366.127 261.504
C 366.12 263.908 366.488 266.752 366.01 269.099
C 361.413 269.803 356.912 271.189 352.448 272.478
C 337.482 276.8 322.853 283.997 310.625 293.699
C 304.697 298.402 298.603 303.507 293.92 309.499
C 292.968 301.226 293.221 292.887 293.3 284.5
C 293.348 279.363 292.998 274.108 293.363 268.988 Z"
opacity="1" fill="rgb(48,169,244)" fill-rule="evenodd" />
<path d="
M 293.272 322.134
C 305.462 303.535 327.199 293.347 347.646 286.454
C 354.156 284.259 360.837 282.611 367.583 281.313
C 370.852 280.683 375.164 280.55 377.299 277.588
C 379.52 274.508 378.37 268.612 378.393 265.009
C 378.437 258.002 378.52 250.995 378.552 243.988
C 378.567 240.668 377.989 236.565 378.713 233.345
C 380.406 233.184 382.206 233.017 383.855 232.605
C 383.246 233.525 383.432 234.133 383.478 235.116
C 383.595 237.632 384.164 241.881 383.325 244.272
C 382.566 247.075 383.134 250.651 383.041 253.562
C 382.826 260.278 382.576 266.981 382.583 273.705
C 382.589 279.887 380.891 286.282 374.15 288.092
C 367.4 289.905 360.336 290.548 353.551 292.327
C 341.855 295.394 330.66 300.28 319.781 305.475
C 315.505 307.516 311.579 310.219 307.497 312.602
C 306.632 313.107 303.651 314.81 304.86 316.221
C 305.27 316.699 305.831 316.801 306.318 317.089
C 302.24 318.704 298.588 321.46 294.415 322.796
C 293.755 322.8 293.483 322.791 293.272 322.134 Z"
opacity="1" fill="rgb(188,188,189)" fill-rule="evenodd" />
<path d="
M 383.325 244.272
C 387.688 244.935 391.493 242.872 395.693 242.476
C 396.276 254.214 395.687 266.132 395.728 277.891
C 395.743 282.179 397.024 288.458 394.241 292.062
C 392.09 294.848 388.73 295.02 385.487 295.36
C 379.822 295.954 374.122 296.772 368.536 297.91
C 347.025 302.292 326.551 308.622 306.318 317.089
C 305.831 316.801 305.27 316.699 304.86 316.221
C 303.651 314.81 306.632 313.107 307.497 312.602
C 311.579 310.219 315.505 307.516 319.781 305.475
C 330.66 300.28 341.855 295.394 353.551 292.327
C 360.336 290.548 367.4 289.905 374.15 288.092
C 380.891 286.282 382.589 279.887 382.583 273.705
C 382.576 266.981 382.826 260.278 383.041 253.562
C 383.134 250.651 382.566 247.075 383.325 244.272 Z"
opacity="1" fill="rgb(202,202,204)" fill-rule="evenodd" />
<path d="
M 315.401 364.883
C 315.831 364.277 317.657 364.556 318.428 364.578
C 320.743 364.642 323.07 364.71 325.386 364.647
C 326.083 364.628 327.447 364.346 327.953 364.834
C 327.502 370.137 327.969 375.68 327.949 381.011
C 327.907 392.51 327.881 404.009 327.836 415.508
C 327.819 419.942 327.777 424.376 327.767 428.811
C 327.766 429.618 328.303 432.609 327.853 433.157
C 323.897 433.134 319.907 432.665 315.949 432.973
C 315.128 431.874 315.643 429.224 315.653 427.866
C 315.684 423.578 315.637 419.29 315.605 415.002
C 315.521 404 315.443 392.998 315.422 381.995
C 315.411 376.311 315.684 370.558 315.401 364.883 Z"
opacity="1" fill="rgb(15,105,197)" fill-rule="evenodd" />
<path d="
M 322.005 196.905
C 323.074 196.65 322.862 193.526 323.013 192.602
C 323.741 188.13 324.61 183.658 326.329 179.447
C 327.566 176.417 329.319 173.585 331.141 170.877
C 331.866 169.798 333.026 168.866 333.568 167.686
C 333.948 166.86 333.177 165.7 332.282 165.505
C 335.268 163.857 339.189 162.892 342.441 161.843
C 343.619 161.463 345.197 160.539 346.456 160.878
C 345.767 162.607 343.344 164.023 342.107 165.427
C 339.56 168.317 337.365 171.386 335.796 174.918
C 329.497 189.088 330.687 203.864 339.882 216.489
C 341.868 219.216 344.123 221.635 346.646 223.87
C 347.712 224.815 349.43 225.557 350.299 226.619
C 349.184 228.64 347.676 230.752 346.284 232.593
C 345.751 233.299 345.118 234.199 344.13 234.088
C 342.196 232.863 340.959 229.608 339.738 227.711
C 337.38 224.052 334.931 220.472 332.698 216.732
C 331.884 215.368 330.633 214.07 330.007 212.624
C 330.022 210.753 331.195 209.113 331.164 207.171
C 331.076 201.706 326.425 198.704 322.005 196.905 Z"
opacity="1" fill="rgb(28,141,219)" fill-rule="evenodd" />
<path d="
M 348.794 167.317
C 348.946 168.23 349.485 168.666 350.134 169.293
C 351.721 170.825 353.553 172.834 355.425 173.989
C 356.374 175.294 357.951 176.831 359.41 177.538
C 361.176 180.609 364.919 182.579 367.068 185.43
C 365.224 185.515 365.845 189.793 365.927 191.006
C 366.277 196.168 367.697 202.293 372.633 204.975
C 375.754 206.671 380.093 206.126 383.517 206.141
C 391.201 206.173 399.126 205.545 406.766 206.433
C 399.835 219.381 386.093 228.453 371.023 227.437
C 349.903 226.012 332.703 204.063 339.18 183.189
C 341.069 177.103 344.58 172.017 348.794 167.317 Z"
opacity="1" fill="rgb(185,185,185)" fill-rule="evenodd" />
<path d="
M 373.775 158.457
C 373.745 159.33 373.296 160.05 373.218 160.921
C 372.988 163.486 373.024 166.12 373.111 168.691
C 373.124 169.065 372.998 170.104 373.273 170.399
C 373.746 170.907 373.748 170.285 373.989 170.988
C 374.299 171.892 374.025 173.375 374.013 174.33
C 373.992 176.103 373.168 177.684 373.159 179.492
C 373.146 181.871 373.722 184.12 373.577 186.484
C 373.462 188.113 373.391 189.782 373.202 191.404
C 373.01 191.658 371.788 190.449 371.483 190.162
C 369.907 188.677 368.729 186.831 367.068 185.43
C 364.919 182.579 361.176 180.609 359.41 177.538
C 358.671 175.971 356.991 174.66 355.425 173.989
C 353.553 172.834 351.721 170.825 350.134 169.293
C 349.485 168.666 348.946 168.23 348.794 167.317
C 353.988 162.496 360.194 159.412 367.095 157.944
C 368.621 157.62 373.481 156.597 373.775 158.457 Z"
opacity="1" fill="rgb(12,131,223)" fill-rule="evenodd" />
<path d="
M 355.425 173.989
C 356.991 174.66 358.671 175.971 359.41 177.538
C 357.951 176.831 356.374 175.294 355.425 173.989 Z"
opacity="1" fill="rgb(37,132,190)" fill-rule="evenodd" />
<path d="
M 359.129 383.251
C 361.377 383.2 363.622 383.389 365.872 383.338
C 366.463 382.64 366.105 380.61 366.124 379.739
C 366.18 377.132 366.457 374.505 367.574 372.115
C 371.903 362.848 385.924 360.226 393.962 366.493
C 393.424 368.606 392.469 370.639 391.656 372.656
C 391.247 373.671 391.086 374.959 390.48 375.864
C 386.988 373.756 380.759 371.831 378.295 376.418
C 377.232 378.396 377.337 381.298 377.467 383.475
C 381.446 383.163 385.67 383.217 389.66 383.31
C 389.842 386.448 389.641 389.666 389.656 392.811
C 388.886 393.07 387.809 392.832 386.997 392.834
C 384.997 392.838 382.997 392.828 380.997 392.819
C 380.043 392.815 378.4 392.545 377.608 393.073
C 376.835 401.565 377.542 410.462 377.588 418.996
C 377.605 422.165 377.61 425.334 377.655 428.503
C 377.675 429.958 377.456 431.705 377.815 433.116
C 373.82 433.299 369.764 433.002 365.757 433.1
C 365.9 423.573 365.744 414.027 365.747 404.497
C 365.747 401.828 365.737 399.159 365.762 396.49
C 365.772 395.466 366.102 393.717 365.721 392.785
C 363.744 392.628 361.076 393.374 359.226 392.685
C 359.311 389.624 359.527 386.281 359.129 383.251 Z"
opacity="1" fill="rgb(193,194,195)" fill-rule="evenodd" />
<path d="
M 367.068 185.43
C 368.729 186.831 369.907 188.677 371.483 190.162
C 371.788 190.449 373.01 191.658 373.202 191.404
C 373.089 192.325 373.247 193.073 373.875 193.776
C 377.162 194.254 380.679 193.882 383.998 193.87
C 392.518 193.841 401.172 193.282 409.679 193.732
C 409.913 194.706 409.455 195.905 409.331 196.892
C 408.909 200.243 407.683 203.223 406.766 206.433
C 399.126 205.545 391.201 206.173 383.517 206.141
C 380.093 206.126 375.754 206.671 372.633 204.975
C 367.697 202.293 366.277 196.168 365.927 191.006
C 365.845 189.793 365.224 185.515 367.068 185.43 Z"
opacity="1" fill="rgb(166,167,169)" fill-rule="evenodd" />
<path d="
M 378.388 149.879
C 379.636 149.481 381.265 150.041 382.508 150.362
C 385.692 151.186 388.618 152.329 391.563 153.788
C 401.155 158.54 408.618 165.635 411.878 176.064
C 413.276 180.54 413.455 185.19 414.631 189.671
C 407.778 189.229 400.868 189.439 394.001 189.42
C 389.03 189.406 383.916 189.078 378.959 189.431
C 378.325 185.611 378.741 181.365 378.738 177.497
C 378.729 168.328 379.118 159.025 378.388 149.879 Z"
opacity="1" fill="rgb(205,206,207)" fill-rule="evenodd" />
<path d="
M 383.855 232.605
C 385.385 231.718 387.382 231.391 389.035 230.733
C 391.322 229.822 393.42 228.46 395.746 227.674
C 396.036 232.586 395.502 237.557 395.693 242.476
C 391.493 242.872 387.688 244.935 383.325 244.272
C 384.164 241.881 383.595 237.632 383.478 235.116
C 383.432 234.133 383.246 233.525 383.855 232.605 Z"
opacity="1" fill="rgb(191,192,195)" fill-rule="evenodd" />
<path d="
M 399.287 364.799
C 400.572 364.284 402.128 364.549 403.497 364.574
C 406.091 364.621 408.69 364.514 411.283 364.606
C 411.745 370.327 411.301 376.255 411.301 381.997
C 411.301 392.996 411.389 403.995 411.374 414.994
C 411.369 418.827 411.363 422.662 411.33 426.495
C 411.312 428.608 411.02 430.977 411.352 433.061
C 411.196 433.377 409 433.073 408.571 433.066
C 405.482 433.021 402.379 432.894 399.294 433.097
C 399.654 422.258 399.259 411.344 399.267 400.497
C 399.276 388.617 399.639 376.671 399.287 364.799 Z"
opacity="1" fill="rgb(195,196,197)" fill-rule="evenodd" />
<path d="
M 422.438 404.591
C 422.924 400.991 424.156 397.466 426.055 394.366
C 437.606 375.51 468.963 379.643 474.399 401.339
C 475.255 404.752 475.478 408.387 474.966 411.875
C 474.195 417.135 471.808 422.267 468.087 426.088
C 457.107 437.364 436.72 436.531 427.268 423.735
C 425.369 421.163 423.96 418.079 423.165 414.986
C 422.317 411.681 421.98 407.983 422.438 404.591 Z
M 434.415 405.085
C 431.966 417.473 445.147 428.038 456.318 421.507
C 457.976 420.539 459.438 419.213 460.528 417.628
C 461.657 415.986 462.458 414.068 462.865 412.119
C 464.083 406.295 462.222 399.353 457.336 395.662
C 448.564 389.037 436.457 394.752 434.415 405.085 Z"
opacity="1" fill="rgb(195,195,195)" fill-rule="evenodd" />
<path d="
M 479.04 383.209
C 482.908 383.184 486.793 383.363 490.661 383.233
C 492.379 385.904 492.985 390.141 493.973 393.177
C 495.987 399.366 498.013 405.547 500.127 411.701
C 500.959 414.124 501.463 416.789 502.524 419.12
C 506.112 407.075 510.955 395.424 514.499 383.342
C 515.137 382.955 516.244 383.129 516.994 383.12
C 519.273 383.093 521.867 382.783 524.106 383.189
C 526.749 390.132 528.581 397.385 531.142 404.366
C 532.331 407.604 533.498 410.856 534.561 414.139
C 535.057 415.672 535.887 417.243 535.996 418.864
C 536.534 418.865 536.719 417.295 536.817 416.906
C 537.363 414.755 538.016 412.588 538.721 410.484
C 540.715 404.533 542.582 398.525 544.461 392.535
C 545.406 389.521 546.743 386.413 547.279 383.298
C 549.853 383.232 552.426 383.299 555.001 383.275
C 556.044 383.265 557.434 382.971 558.405 383.369
C 555.606 392.156 552.244 400.757 549.298 409.496
C 547.472 414.912 545.587 420.299 543.642 425.674
C 542.739 428.17 542.052 430.846 540.872 433.228
C 537.654 433.598 534.055 433.336 530.825 433.124
C 528.495 426.025 525.855 419.028 523.421 411.964
C 522.006 407.856 521.222 403.02 519.222 399.194
C 515.917 410.744 510.764 421.762 507.25 433.25
C 506.158 433.547 504.72 433.318 503.581 433.313
C 501.336 433.301 498.906 433.541 496.689 433.189
C 492.746 422.413 488.921 411.556 485.15 400.717
C 483.147 394.959 481.718 388.689 479.04 383.209 Z"
opacity="1" fill="rgb(196,196,196)" fill-rule="evenodd" />

</svg>